# xmcd
#
# Track frame offsets: 
#        150
#        18180
#        38233
#        53357
#        70554
#
# Disc length: 1196 seconds
#
# Revision: 0
# Processed by: cddbd v1.5.2PL0 Copyright (c) Steve Scherf et al.
# Submitted via: ExactAudioCopy v1.0b3
#
DISCID=2e04aa05
DTITLE=한국인 - Long Good Bye
DYEAR=2014
DGENRE=Blues
TTITLE0=423
TTITLE1=Longgoodbye
TTITLE2=record
TTITLE3=이미
TTITLE4=이사
EXTD=
EXTT0=
EXTT1=
EXTT2=
EXTT3=
EXTT4=
PLAYORDER=
